<svg width="170" height="40" viewBox="0 0 170 40" fill="none" xmlns="http://www.w3.org/2000/svg">
<g clip-path="url(#clip0_3_276)">
<path d="M35.1692 0H4.83077C3.54957 0 2.32084 0.508955 1.4149 1.4149C0.508955 2.32084 0 3.54957 0 4.83077L0 35.1692C0 36.4504 0.508955 37.6792 1.4149 38.5851C2.32084 39.491 3.54957 40 4.83077 40H35.1692C36.4504 40 37.6792 39.491 38.5851 38.5851C39.491 37.6792 40 36.4504 40 35.1692V4.83077C40 3.54957 39.491 2.32084 38.5851 1.4149C37.6792 0.508955 36.4504 0 35.1692 0V0ZM29.2615 21.3231C29.3922 22.5771 29.245 23.8445 28.8304 25.0352C28.4159 26.2259 27.7441 27.3107 26.863 28.2124C25.9818 29.1142 24.9128 29.8107 23.732 30.2526C22.5511 30.6945 21.2875 30.8709 20.0308 30.7692C18.783 30.8339 17.5357 30.6321 16.372 30.1773C15.2083 29.7224 14.1547 29.025 13.2815 28.1314C12.4082 27.2378 11.7353 26.1684 11.3074 24.9945C10.8796 23.8206 10.7066 22.569 10.8 21.3231V9.23077H14.6769V21.3231C14.5797 22.0808 14.6516 22.8506 14.8875 23.5772C15.1233 24.3038 15.5173 24.969 16.041 25.5251C16.5648 26.0812 17.2053 26.5143 17.9164 26.7933C18.6276 27.0723 19.3917 27.1901 20.1538 27.1385C23.4462 27.1385 25.3231 24.9538 25.3231 21.3231V9.23077H29.2615V21.3231Z" fill="#F7931E"/>
<path d="M60.8921 20.5539C61.694 20.2468 62.383 19.7021 62.8669 18.9928C63.3508 18.2834 63.6065 17.4433 63.5998 16.5846C63.5998 12.4 60.5229 10.5846 56.4921 10.5846H46.6768V31.2308H56.4921C60.7691 31.2308 64.2152 29.7846 64.2152 25.0769C64.1674 24.0798 63.8266 23.1189 63.2355 22.3144C62.6445 21.5099 61.8294 20.8976 60.8921 20.5539V20.5539ZM50.5229 14.1231H56.4921C58.9537 14.1231 59.7229 15.7231 59.7229 16.6769C59.7229 17.6308 58.9229 18.8615 56.4921 18.8615H50.5229V14.1231ZM56.4921 27.6923H50.5229V22.3077H56.4921C58.0614 22.3077 60.3383 23.2615 60.3383 25.1385C60.3383 27.0154 58.0614 27.6923 56.4921 27.6923Z" fill="#F7931E"/>
<path d="M66.3701 12.5846C66.3701 13.1477 66.5938 13.6877 66.992 14.0858C67.3901 14.484 67.9301 14.7077 68.4932 14.7077C69.0563 14.7077 69.5963 14.484 69.9944 14.0858C70.3926 13.6877 70.6163 13.1477 70.6163 12.5846C70.6163 12.0215 70.3926 11.4815 69.9944 11.0834C69.5963 10.6852 69.0563 10.4615 68.4932 10.4615C67.9301 10.4615 67.3901 10.6852 66.992 11.0834C66.5938 11.4815 66.3701 12.0215 66.3701 12.5846Z" fill="#F7931E"/>
<path d="M70.307 16.6462H66.707V31.2615H70.307V16.6462Z" fill="#F7931E"/>
<path d="M86.2766 16.8923V16.677H81.9689L77.0766 22.5539V10.6154H73.4766V31.2308H77.0766V24.677L82.7689 31.2308H87.1073V30.9846L80.3381 23.5385L86.2766 16.8923Z" fill="#F7931E"/>
<path d="M95.8452 16.2462C94.8228 16.1845 93.7988 16.3388 92.8401 16.6992C91.8813 17.0596 91.0092 17.618 90.2806 18.3379C89.552 19.0578 88.9832 19.9231 88.6113 20.8775C88.2394 21.8318 88.0727 22.8538 88.1221 23.8769C88.0551 24.9339 88.2181 25.9928 88.5999 26.9807C88.9818 27.9685 89.5733 28.8618 90.3338 29.5989C91.0943 30.336 92.0057 30.8993 93.005 31.2501C94.0043 31.6009 95.0678 31.7308 96.1221 31.6308C98.4012 31.6589 100.604 30.8108 102.276 29.2615L99.9683 26.9846C98.8808 27.8874 97.5044 28.368 96.0913 28.3385C93.5375 28.3385 91.9683 27.0462 91.7529 25.2615H103.107C103.753 19.2615 100.707 16.2462 95.8452 16.2462ZM91.9067 22.4C92.1475 21.5286 92.6852 20.7688 93.4268 20.2519C94.1685 19.735 95.0674 19.4935 95.9683 19.5692C96.403 19.504 96.8463 19.5257 97.2726 19.633C97.6988 19.7404 98.0996 19.9312 98.4516 20.1945C98.8036 20.4578 99.0998 20.7883 99.3232 21.1669C99.5466 21.5454 99.6926 21.9646 99.7529 22.4H91.9067Z" fill="#F7931E"/>
<path d="M123.078 10.5846H106.094V14.1231H112.648V31.2308H116.525V14.1231H123.078V10.5846Z" fill="#F7931E"/>
<path d="M128.061 16.4C127.06 16.3654 126.061 16.5378 125.129 16.9063C124.197 17.2749 123.35 17.8317 122.643 18.542C121.936 19.2523 121.382 20.1009 121.017 21.0347C120.653 21.9685 120.484 22.9675 120.523 23.9692C120.523 24.9632 120.719 25.9475 121.099 26.8658C121.48 27.7842 122.037 28.6186 122.74 29.3215C123.443 30.0243 124.277 30.5819 125.196 30.9623C126.114 31.3427 127.098 31.5384 128.092 31.5384C129.086 31.5384 130.071 31.3427 130.989 30.9623C131.907 30.5819 132.742 30.0243 133.444 29.3215C134.147 28.6186 134.705 27.7842 135.085 26.8658C135.466 25.9475 135.661 24.9632 135.661 23.9692C135.691 22.9645 135.515 21.9642 135.143 21.0303C134.772 20.0963 134.213 19.2485 133.5 18.5391C132.788 17.8298 131.938 17.274 131.003 16.906C130.067 16.5381 129.066 16.3659 128.061 16.4V16.4ZM128.061 28.2769C127.51 28.2789 126.965 28.1662 126.46 27.9459C125.955 27.7256 125.501 27.4026 125.128 26.9974C124.755 26.5922 124.47 26.1136 124.291 25.5923C124.113 25.071 124.045 24.5182 124.092 23.9692C124.05 23.4212 124.121 22.8704 124.301 22.3511C124.481 21.8318 124.766 21.3552 125.139 20.951C125.511 20.5468 125.963 20.2237 126.466 20.0018C126.969 19.78 127.512 19.6641 128.061 19.6615C128.604 19.6812 129.138 19.8088 129.631 20.0368C130.124 20.2649 130.567 20.5888 130.934 20.9898C131.3 21.3908 131.583 21.8607 131.766 22.3723C131.95 22.8838 132.029 23.4267 132 23.9692C132.047 24.5131 131.98 25.0607 131.806 25.5778C131.631 26.095 131.352 26.5705 130.985 26.9748C130.618 27.3791 130.172 27.7034 129.674 27.9274C129.177 28.1515 128.638 28.2704 128.092 28.2769H128.061Z" fill="#F7931E"/>
<path d="M149.076 24.1231C149.109 24.6383 149.038 25.1549 148.868 25.6421C148.697 26.1294 148.43 26.5773 148.083 26.9592C147.735 27.3411 147.314 27.6491 146.845 27.8649C146.376 28.0807 145.869 28.1999 145.353 28.2154C144.855 28.2236 144.361 28.1249 143.905 27.9258C143.449 27.7267 143.04 27.432 142.708 27.0615C142.375 26.691 142.126 26.2534 141.977 25.7783C141.828 25.3032 141.783 24.8017 141.845 24.3077V16.7077H138.245V24.3384C138.245 28.8615 140.799 31.4769 144.399 31.4769C145.328 31.4863 146.248 31.2961 147.098 30.9192C147.947 30.5423 148.706 29.9875 149.322 29.2923L149.568 31.2615H152.645V16.7077H149.076V24.1231Z" fill="#F7931E"/>
<path d="M163.57 16.3077C162.749 16.242 161.927 16.4093 161.198 16.7903C160.468 17.1714 159.861 17.7507 159.447 18.4616L159.201 16.8H155.847V31.3231H159.447V23.5692C159.4 23.0781 159.462 22.5828 159.627 22.118C159.792 21.6532 160.057 21.2301 160.403 20.8784C160.749 20.5266 161.167 20.2548 161.629 20.0818C162.091 19.9088 162.586 19.8389 163.077 19.8769C163.555 19.8561 164.031 19.9296 164.48 20.0932C164.929 20.2569 165.341 20.5076 165.693 20.8308L167.293 17.7539C166.283 16.8123 164.95 16.2946 163.57 16.3077V16.3077Z" fill="#F7931E"/>
</g>
<defs>
<clipPath id="clip0_3_276">
<rect width="169.231" height="40" fill="white"/>
</clipPath>
</defs>
</svg>
