<svg width="40" height="40" viewBox="0 0 40 40" fill="none" xmlns="http://www.w3.org/2000/svg">
<g clip-path="url(#clip0_2_20)">
<path d="M35.1692 0H4.83077C3.54957 0 2.32084 0.508955 1.4149 1.4149C0.508955 2.32084 0 3.54957 0 4.83077L0 35.1692C0 36.4504 0.508955 37.6792 1.4149 38.5851C2.32084 39.491 3.54957 40 4.83077 40H35.1692C36.4504 40 37.6792 39.491 38.5851 38.5851C39.491 37.6792 40 36.4504 40 35.1692V4.83077C40 3.54957 39.491 2.32084 38.5851 1.4149C37.6792 0.508955 36.4504 0 35.1692 0V0ZM29.2615 21.3231C29.3922 22.5771 29.245 23.8445 28.8304 25.0352C28.4159 26.2259 27.7442 27.3107 26.863 28.2124C25.9818 29.1142 24.9128 29.8107 23.732 30.2526C22.5511 30.6945 21.2875 30.8709 20.0308 30.7692C18.783 30.8339 17.5357 30.6321 16.372 30.1773C15.2083 29.7224 14.1547 29.025 13.2815 28.1314C12.4082 27.2378 11.7353 26.1684 11.3074 24.9945C10.8796 23.8206 10.7066 22.569 10.8 21.3231V9.23077H14.6769V21.3231C14.5797 22.0808 14.6516 22.8506 14.8875 23.5772C15.1233 24.3038 15.5173 24.969 16.041 25.5251C16.5648 26.0812 17.2053 26.5143 17.9164 26.7933C18.6276 27.0723 19.3917 27.1901 20.1538 27.1385C23.4462 27.1385 25.3231 24.9538 25.3231 21.3231V9.23077H29.2615V21.3231Z" fill="#F7931E"/>
</g>
<defs>
<clipPath id="clip0_2_20">
<rect width="40" height="40" fill="white"/>
</clipPath>
</defs>
</svg>
